# xmcd
#
# Track frame offsets:
# 150
# 13243
# 26242
# 37347
# 49956
# 62794
# 73176
# 86529
# 104060
# 115795
#
# Disc length: 1739 seconds
#
#
# Revision: 0
# Processed by: cddbd v1.5PL3 Copyright (c) Steve Scherf et al.
# Submitted via: FreeRIP 2.53 
#
DISCID=9706c90a
DTITLE=Morgan, George - Room Full Of Roses
DYEAR=1900
DGENRE=Country
TTITLE0=Candy Kisses
TTITLE1=Cry Baby Heart
TTITLE2=Hello Darlin'
TTITLE3=In The Misty Moonlight
TTITLE4=Just Out Of Reach
TTITLE5=Little Dutch Girl
TTITLE6=Room Full Of Roses
TTITLE7=Precious Memories
TTITLE8=Signed Sealed and Delivered
TTITLE9=Sounds Of Goodbye
EXTD=
EXTT0=
EXTT1=
EXTT2=
EXTT3=
EXTT4=
EXTT5=
EXTT6=
EXTT7=
EXTT8=
EXTT9=
PLAYORDER=
